<?xml version="1.0" encoding="UTF-8" standalone="no"?>
<svg xmlns:rdf="http://www.w3.org/1999/02/22-rdf-syntax-ns#" xmlns="http://www.w3.org/2000/svg" xml:space="preserve" height="187.07" width="150" version="1.1" xmlns:cc="http://creativecommons.org/ns#" xmlns:dc="http://purl.org/dc/elements/1.1/" viewBox="0 0 149.99955 187.0714"><g transform="matrix(1.8279 0 0 1.8279 -.017164 .51361)"><path fill="#a2aaad" d="m81.273 47.997c-2.3262-3.9425-5.2062-7.4038-6.7688-9.1688l1.2675-0.675-0.4775-1.085c-1.1375-2.5875-2.9775-5.265-3.5712-6.1012-3.358-22.984-13.789-29.734-14.237-30.011l-0.8275-0.515-0.715 0.66375c-5.27 4.8575-7.49 11.5-8.2012 14.131-2.7138-0.23875-6.4538-0.4075-6.6338-0.41375l-0.05-0.0037-0.06 0.0037c-0.18 0.0063-3.9175 0.175-6.635 0.41375-0.71125-2.6312-2.9262-9.2738-8.2-14.131l-0.7125-0.66375-0.83375 0.515c-0.43875 0.2775-10.878 7.0275-14.228 30.011-0.595 0.83625-2.4412 3.5138-3.575 6.1012l-0.4775 1.085 1.2612 0.675c-1.56 1.765-4.4388 5.2262-6.7625 9.1688l-0.26875 0.455 0.135 0.52c0.1775 0.66375 4.365 16.452 10.606 27.344l1.4375 2.4975 1.05-3.24c2.3338 3.765 7.3212 10.821 14.172 15.036 0.83625 1.9662 4.7062 9.9125 12.91 11.056l0.18 0.025 0.1725-0.025c8.205-1.1438 12.07-9.09 12.906-11.056 6.8512-4.215 11.84-11.271 14.172-15.036l1.05 3.24 1.4338-2.4975c6.2438-10.891 10.435-26.68 10.611-27.344l0.13125-0.52-0.26375-0.455z"/><path fill="#000e2f" d="m25.292 2.0305s-10.434 6.5076-13.688 29.424c0 0-2.3238 3.1586-3.625 6.1211l1.6699 0.89062s-4.4573 4.6388-7.7148 10.174c0 0 4.251 16.165 10.479 27.025l1.0488-3.2227s6.0436 11.657 15.527 17.283c0 0 3.532 9.4873 12.064 10.666 8.525-1.1788 12.061-10.666 12.061-10.666 9.48-5.6262 15.518-17.283 15.518-17.283l1.0547 3.2227c6.2275-10.86 10.48-27.025 10.48-27.025-3.26-5.535-7.7207-10.174-7.7207-10.174l1.6719-0.89062c-1.3012-2.9625-3.625-6.1211-3.625-6.1211-3.254-22.916-13.689-29.424-13.689-29.424-6.34 5.8562-8.082 14.582-8.082 14.582-2.6538-0.29625-7.668-0.51758-7.668-0.51758s-5.022 0.22133-7.6758 0.51758c0 0-1.7422-8.7258-8.0859-14.582z"/><path d="m25.006 6.7129v0.00195s-8.0194 5.5529-10.176 22.596c0 0 1.5441-3.9405 3.9766-9.418 2.43-5.48 5.9883-10.141 5.9883-10.141 1.8125 2.8162 2.0234 6.7422 2.0234 6.7422-2.5812 3.6338-3.627 7.0371-3.627 7.0371l1.6758-0.22266c-1.1812 2.2238-1.7422 6-1.7422 6 4.8775-5.0375 10.18-7.707 10.18-7.707s-2.1605-0.29102-3.1367-0.29102l1.6738-1.041s-1.5409-8.8125-6.8359-13.557zm32.213 0v0.00195c-5.297 4.7422-6.834 13.555-6.834 13.555l1.6719 1.041c-0.97375 0-3.1348 0.29297-3.1348 0.29297s5.3012 2.6676 10.178 7.7051c0 0-0.55901-3.775-1.7402-6l1.6699 0.22266s-1.043-3.4066-3.623-7.0391c0 0 0.20771-3.9272 2.0215-6.7422 0 0 3.5595 4.6602 5.9883 10.141 2.4312 5.4762 3.9785 9.418 3.9785 9.418-2.159-17.044-10.176-22.597-10.176-22.597zm-16.158 22.016c-2.0859 9.7035-2.6699 22.27-2.6699 22.27-4.2512 3.0375-6.8281 7.1582-6.8281 7.1582-0.70125-3.1862-0.56055-6.7129-0.56055-6.7129-5.8575-1.7038-6.0625-6.3711-6.0625-6.3711s2.2266-0.29383 4.5254 0.07617l-0.558-1.778s2.9328 1.3288 5.4453 7.1113c0 0 2.3659-1.7078 1.7422-10.891 0 0-2.0959-2.893-5.1621-4.0742-1.3962 1.7-2.5762 3.7773-2.5762 3.7773l1.043 0.51758c-2.8562 3.7825-6.832 4.5176-6.832 4.5176-0.21 4.5962 1.0156 10.361 1.0156 10.361-2.86-3.1862-3.8066-8.3613-3.8066-8.3613-3.5525-1.2588-6.0645-1.5508-6.0645-1.5508l-3.418 2.8848 3.418 2.2266-5.6475 0.735c1.8788 8 5.4395 16.375 5.4395 16.375l1.043-2.5918c4.535 8.8825 8.7832 11.625 8.7832 11.625-1.2512-4.44-3.2734-9.332-3.2734-9.332 6.345 4.5938 10.146 14.481 11.783 19.705 2.5125 8.0025 9.2754 7.8008 9.2754 7.8008s6.7602 0.20174 9.2715-7.8008c1.635-5.2238 5.4378-15.111 11.781-19.705 0 0-2.0229 4.892-3.2754 9.332 0 0 4.2507-2.7425 8.7832-11.625l1.045 2.592s3.5571-8.375 5.4434-16.375l-5.6523-0.73438 3.4199-2.2266-3.4199-2.8848s-2.51 0.29201-6.0625 1.5508c0 0-0.95233 5.1751-3.8086 8.3613 0 0 1.2283-5.7653 1.0195-10.361 0 0-3.9752-0.73506-6.834-4.5176l1.0469-0.51758s-1.187-2.0773-2.582-3.7773c-3.0637 1.1812-5.1582 4.0742-5.1582 4.0742-0.6275 9.1825 1.7422 10.891 1.7422 10.891 2.5112-5.7825 5.4414-7.1113 5.4414-7.1113l-0.55859 1.7793c2.2988-0.37 4.5273-0.07617 4.5273-0.07617s-0.2075 4.6673-6.0625 6.3711c0 0 0.14102 3.5266-0.55273 6.7129 0 0-2.5866-4.1207-6.8379-7.1582 0 0-0.67706-12.568-2.7695-22.271z" fill="#fff" transform="translate(-.00012589)"/><path fill="#000e2f" d="m41.113 64.629c3.4112 0 5.4336 2.3711 5.4336 2.3711-0.07 6.8188-4.5977 7.8496-4.5977 7.8496s-0.42086 1.9305 3.2754 1.7793c3.6975-0.1475 4.8823-2.1473 7.8086-7.7773 1.1412-2.2012 2.0637-2.8789 2.7637-2.8789-2.4312 4.2375-4.0716 9.4607-4.5879 11.221-0.575 1.6675-1.1009 3.4546-1.5234 5.2871-1.8812 8.0788-8.5723 8.666-8.5723 8.666s-6.6935-0.58727-8.5723-8.666c-0.40375-1.7112-0.88156-3.378-1.4141-4.9492-0.37375-1.3175-2.0673-7.0086-4.6836-11.559 0.69875 0.01125 1.6061 0.69516 2.7461 2.8789 2.925 5.63 4.1148 7.6298 7.8086 7.7773 3.695 0.15125 3.2793-1.7793 3.2793-1.7793s-4.5328-1.0309-4.6016-7.8496c0 0 2.0162-2.3711 5.4375-2.3711z"/><path d="m27.911 46.792s-0.47703 2.0138 1.3555 2.5625c1.8338 0.55125 2.3086-1.1953 2.3086-1.1953-0.6325-0.4725-1.2751-0.77992-1.8301-0.98242 0.115 0.35375 0.28976 0.76773 0.54102 1.1465-0.18375 0.0725-0.41859 0.09586-0.71484 0.0059-0.955-0.28375-0.81141-1.2544-0.78516-1.4219-0.5325-0.11-0.875-0.11523-0.875-0.11523zm26.4 0s-0.34336 0.0052-0.88086 0.11523c0.0325 0.1675 0.1757 1.1388-0.7793 1.4238-0.29875 0.09-0.53164 0.06594-0.71289-0.0078 0.2475-0.37875 0.42047-0.79148 0.54297-1.1465-0.565 0.20375-1.1997 0.50992-1.8359 0.98242 0 0 0.47 1.7466 2.3125 1.1953 1.8312-0.54875 1.3535-2.5625 1.3535-2.5625z" fill="#a4c8e1"/><path d="m41.054 83.585c1.6975-0.05625 3.5988-1.7612 3.6625-4.385-3.2525 0-2.6838 2.4525-3.6625 2.4525-0.98625 0-0.39875-2.4525-3.67-2.4525 0.0575 2.6238 1.9612 4.3288 3.67 4.385" stroke="#e4002b" stroke-width="0.1" fill="#e4002b"/><path d="m41.049 66.223c-1.4738 0-3.0198 0.65495-3.5586 1.5938 0.80375-0.66625 2.2573-1.0859 3.5586-1.0859 1.3088 0 2.7579 0.41973 3.5566 1.0859-0.5425-0.93875-2.0816-1.5938-3.5566-1.5938zm-5.541 13.369c-1.7875 1.3757-1.4941 5.8228 1.0859 6.8477 2.6475 0.77743 2.3269 1.2033 4.4531 1.3066 2.1275-0.10336 1.8035-0.52924 4.4473-1.3066 2.5788-1.0248 2.8755-5.472 1.0918-6.8477 0.7725 2.9503-1.9691 5.7037-1.9941 5.6289-0.09-0.58499-0.66016-0.78552-0.66016-0.79102-0.0063-0.03849-0.49099 1.685-2.8848 1.7422-2.4-0.05718-2.8809-1.7806-2.8809-1.7422 0 0.0055-0.57867 0.20602-0.66992 0.79102-0.02125 0.07477-2.7658-2.6786-1.9883-5.6289z" fill="#fff" transform="translate(-.00012589)"/></g></svg>
