<?xml version="1.0" encoding="iso-8859-1"?>
<!-- Uploaded to: SVG Repo, www.svgrepo.com, Generator: SVG Repo Mixer Tools -->
<svg height="800px" width="800px" version="1.1" id="Layer_1" xmlns="http://www.w3.org/2000/svg" xmlns:xlink="http://www.w3.org/1999/xlink" 
	 viewBox="0 0 512 512" xml:space="preserve">
<path style="fill:#5B7F81;" d="M141.236,495.304H51.054C22.972,495.304,0,472.557,0,444.761V67.239
	c0-27.796,22.979-50.543,51.054-50.543H256h82.511c28.075,0,51.054,22.747,51.054,50.543v377.522
	c0,27.796-22.972,50.543-51.054,50.543H248.33H141.236z"/>
<path style="fill:#663310;" d="M512,486.438c0,4.896-3.987,8.867-8.904,8.867H233.739c-4.917,0-8.904-3.969-8.904-8.867
	c0-4.896,3.987-8.866,8.904-8.866h269.357C508.013,477.572,512,481.542,512,486.438z"/>
<path style="fill:#415E5C;" d="M228.27,450.974h-66.974c-12.241,0-22.165-9.924-22.165-22.165l0,0
	c0-12.241,9.924-22.165,22.165-22.165h66.974c12.241,0,22.165,9.924,22.165,22.165l0,0
	C250.435,441.05,240.511,450.974,228.27,450.974z"/>
<path style="fill:#B1D7C5;" d="M111.659,428.589H69.484V81.037h191.291h59.305v347.551h-42.175H111.659z"/>
<path style="fill:#97BAA8;" d="M139.142,428.589c0.12-12.139,10.03-21.945,22.25-21.945h66.783c12.22,0,22.13,9.806,22.25,21.945
	H139.142z"/>
<path style="fill:#234848;" d="M204.733,428.585c0,4.896-3.987,8.867-8.904,8.867h-2.093c-4.917,0-8.904-3.969-8.904-8.867
	c0-4.896,3.987-8.867,8.904-8.867h2.093C200.746,419.719,204.733,423.689,204.733,428.585z M196.94,275.555
	c0-4.896-3.987-8.867-8.904-8.867H130.15c-4.917,0-8.904,3.969-8.904,8.867c0,4.896,3.987,8.867,8.904,8.867h57.885
	C192.954,284.422,196.94,280.451,196.94,275.555z M218.336,138.266H130.15c-4.917,0-8.904,3.969-8.904,8.867
	c0,4.896,3.987,8.867,8.904,8.867h88.185c4.917,0,8.904-3.969,8.904-8.867C227.24,142.236,223.253,138.266,218.336,138.266z
	 M130.15,220.209h41.815c4.917,0,8.904-3.969,8.904-8.867c0-4.896-3.987-8.867-8.904-8.867H130.15c-4.917,0-8.904,3.969-8.904,8.867
	S125.233,220.209,130.15,220.209z"/>
<path style="fill:#FFBB5E;" d="M442.15,184.507c3.227,3.694,2.836,9.295-0.875,12.508c-1.686,1.46-3.768,2.177-5.84,2.177
	c-2.488,0-4.962-1.032-6.723-3.048c-20.821-23.835-17.077-66.997-0.52-92.357c13.629-20.862,13.881-55.052,0.519-70.354
	c-3.227-3.695-2.834-9.295,0.877-12.508c3.712-3.212,9.336-2.82,12.562,0.873c20.513,23.492,16.976,67.159,0.972,91.656
	C430.395,132.949,427.274,167.477,442.15,184.507z M406.634,113.454c16.001-24.501,19.537-68.168-0.972-91.655
	c-3.226-3.694-8.85-4.086-12.562-0.873c-3.711,3.212-4.104,8.813-0.877,12.508c13.359,15.299,13.107,49.489-0.519,70.353
	c-16.561,25.356-20.305,68.518,0.52,92.358c1.761,2.016,4.234,3.048,6.723,3.048c2.071,0,4.154-0.717,5.84-2.177
	c3.711-3.213,4.103-8.813,0.875-12.508C390.782,167.474,393.903,132.946,406.634,113.454z"/>
<path style="fill:#C13421;" d="M491.965,241.18h-28.628v-18.571h-92.856h-92.221v125.629c0,50.391,41.638,91.619,92.538,91.619
	c50.897,0,92.538-41.228,92.538-91.619v-8.139h28.627c11.047,0,20.035-8.949,20.035-19.949v-59.022
	C512,250.129,503.012,241.18,491.965,241.18z M494.191,320.15c0,1.222-0.998,2.216-2.226,2.216h-28.628v-63.455h28.628
	c1.228,0,2.226,0.994,2.226,2.216V320.15z"/>
<path style="fill:#FF4328;" d="M278.261,348.238V222.609h88.398v125.629c0,32.882-17.736,61.853-44.2,78.022
	C295.996,410.091,278.261,381.119,278.261,348.238z"/>
</svg>