<?xml version="1.0" encoding="iso-8859-1"?>
<!-- Uploaded to: SVG Repo, www.svgrepo.com, Generator: SVG Repo Mixer Tools -->
<svg height="20px" width="20px" version="1.1" id="Layer_1" xmlns="http://www.w3.org/2000/svg" xmlns:xlink="http://www.w3.org/1999/xlink" 
	 viewBox="0 0 511.89 511.89" xml:space="preserve">
<g>
	<path style="fill:#434A54;" d="M138.64,479.892c-5.89,0-10.67,4.78-10.67,10.67c0,5.889,4.78,10.653,10.67,10.653
		c5.889,0,10.669-4.765,10.669-10.653C149.309,484.673,144.529,479.892,138.64,479.892z"/>
	<path style="fill:#434A54;" d="M202.626,479.892c-5.89,0-10.67,4.78-10.67,10.67c0,5.889,4.78,10.653,10.67,10.653
		c5.889,0,10.669-4.765,10.669-10.653C213.295,484.673,208.514,479.892,202.626,479.892z"/>
	<path style="fill:#434A54;" d="M266.611,479.892c-5.889,0-10.67,4.78-10.67,10.67c0,5.889,4.781,10.653,10.67,10.653
		c5.896,0,10.678-4.765,10.678-10.653C277.289,484.673,272.507,479.892,266.611,479.892z"/>
	<path style="fill:#434A54;" d="M330.589,479.892c-5.874,0-10.653,4.78-10.653,10.67c0,5.889,4.779,10.653,10.653,10.653
		c5.905,0,10.685-4.765,10.685-10.653C341.273,484.673,336.494,479.892,330.589,479.892z"/>
	<path style="fill:#434A54;" d="M394.574,479.892c-5.873,0-10.654,4.78-10.654,10.67c0,5.889,4.781,10.653,10.654,10.653
		c5.904,0,10.686-4.765,10.686-10.653C405.259,484.673,400.478,479.892,394.574,479.892z"/>
	<path style="fill:#434A54;" d="M458.559,479.892c-5.874,0-10.653,4.78-10.653,10.67c0,5.889,4.779,10.653,10.653,10.653
		c5.905,0,10.685-4.765,10.685-10.653C469.244,484.673,464.465,479.892,458.559,479.892z"/>
	<path style="fill:#434A54;" d="M74.655,479.892c-5.89,0-10.67,4.78-10.67,10.67c0,5.889,4.78,10.653,10.67,10.653
		c5.889,0,10.669-4.765,10.669-10.653C85.324,484.673,80.544,479.892,74.655,479.892z"/>
	<path style="fill:#434A54;" d="M21.339,106.65c-5.889,0-10.669,4.764-10.669,10.653s4.78,10.67,10.669,10.67
		c5.89,0,10.67-4.78,10.67-10.67S27.228,106.65,21.339,106.65z"/>
	<path style="fill:#434A54;" d="M21.339,170.635c-5.889,0-10.669,4.764-10.669,10.653s4.78,10.67,10.669,10.67
		c5.89,0,10.67-4.78,10.67-10.67S27.228,170.635,21.339,170.635z"/>
	<path style="fill:#434A54;" d="M21.339,234.621c-5.889,0-10.669,4.764-10.669,10.653s4.78,10.67,10.669,10.67
		c5.89,0,10.67-4.78,10.67-10.67S27.228,234.621,21.339,234.621z"/>
	<path style="fill:#434A54;" d="M21.339,298.605c-5.889,0-10.669,4.766-10.669,10.654s4.78,10.67,10.669,10.67
		c5.89,0,10.67-4.781,10.67-10.67S27.228,298.605,21.339,298.605z"/>
	<path style="fill:#434A54;" d="M21.339,362.59c-5.889,0-10.669,4.765-10.669,10.654s4.78,10.67,10.669,10.67
		c5.89,0,10.654-4.78,10.654-10.67S27.228,362.59,21.339,362.59z"/>
	<path style="fill:#434A54;" d="M21.339,426.577c-5.889,0-10.669,4.764-10.669,10.653s4.78,10.67,10.669,10.67
		c5.89,0,10.654-4.78,10.654-10.67S27.228,426.577,21.339,426.577z"/>
	<path style="fill:#434A54;" d="M21.339,42.665c-5.889,0-10.669,4.764-10.669,10.653s4.78,10.67,10.669,10.67
		c5.89,0,10.67-4.78,10.67-10.67S27.228,42.665,21.339,42.665z"/>
</g>
<path style="fill:#656D78;" d="M501.237,490.563H21.339V10.672c0-5.89-4.78-10.669-10.669-10.669C4.78,0.003,0,4.782,0,10.672
	v490.544c0,5.89,4.78,10.67,10.67,10.67h490.567c5.874,0,10.653-4.78,10.653-10.67S507.111,490.563,501.237,490.563z"/>
<path style="fill:#ED5564;" d="M511.89,309.259c0-5.889-4.779-10.654-10.653-10.654c-5.905,0-10.685,4.766-10.685,10.654
	c0,0.016,0,0.016,0,0.031v38.21L306.156,163.09c-1.937-1.921-4.592-3.124-7.561-3.124c-2.937,0-5.592,1.203-7.529,3.124
	l-67.117,67.11L82.2,88.451c-1.922-1.938-4.593-3.14-7.545-3.14c-5.89,0-10.67,4.779-10.67,10.669c0,2.952,1.203,5.608,3.14,7.545
	l149.278,149.294c1.938,1.922,4.608,3.125,7.546,3.125c2.952,0,5.623-1.203,7.561-3.125l67.086-67.109l176.897,176.881h-38.241
	c-5.904,0-10.686,4.765-10.686,10.654s4.781,10.67,10.686,10.67h63.985l0,0c5.874,0,10.653-4.78,10.653-10.67l0,0V309.259
	L511.89,309.259z"/>
</svg>