<svg xmlns="http://www.w3.org/2000/svg" viewBox="0 0 100 100" id="transaction-history"><polygon fill="#54b89a" points="8.92 16.59 56.51 16.59 56.51 12.6 5.91 12.6 5.91 80.5 8.92 80.5 8.92 16.59"></polygon><path fill="#86d1f5" d="M51.47,42.8a22.77,22.77,0,0,1,11-19.46V19.5H11.83V87.4H62.42V62.26A22.79,22.79,0,0,1,51.47,42.8ZM36.86,48.2c2.74,0,5-1.89,5-4.22s-2.23-4.21-5-4.21v0c-3.8-.37-6.77-3.3-6.77-6.84a7.11,7.11,0,0,1,6.23-6.76V23.39h2.91v2.77a7.1,7.1,0,0,1,6,6.73H42.36c0-2.18-2.1-4-4.68-4S33,30.71,33,32.89s2.1,4,4.68,4v0c4,.37,7.06,3.41,7.06,7.09a7.26,7.26,0,0,1-5.51,6.8V53H36.32V51.09C32.23,50.83,29,47.75,29,44H31.9C31.9,46.31,34.13,48.2,36.86,48.2ZM56,82H18.25V79.1H56Zm0-8.88H18.25V70.22H56Zm0-8.87H18.25V61.34H56Z"></path><path fill="#fff" d="M31.9,44H29c0,3.77,3.24,6.85,7.33,7.11V53h2.91v-2.2A7.26,7.26,0,0,0,44.74,44c0-3.68-3.1-6.72-7.06-7.09v0c-2.58,0-4.68-1.78-4.68-4s2.1-4,4.68-4,4.68,1.78,4.68,4h2.91a7.1,7.1,0,0,0-6-6.73V23.39H36.32v2.74a7.11,7.11,0,0,0-6.23,6.76c0,3.54,3,6.47,6.77,6.84v0c2.74,0,5,1.89,5,4.21s-2.23,4.22-5,4.22S31.9,46.31,31.9,44Z"></path><rect width="37.76" height="2.91" x="18.25" y="61.34" fill="#fff"></rect><rect width="37.76" height="2.91" x="18.25" y="70.22" fill="#fff"></rect><rect width="37.76" height="2.91" x="18.25" y="79.1" fill="#fff"></rect><path fill="#fecb37" d="M88.21,44.48V41.56H94A19.85,19.85,0,0,0,75.69,23v6H72.78V23A19.85,19.85,0,0,0,54.44,41.56h5.82v2.92h-5.8a19.87,19.87,0,0,0,18.32,18.1V57h2.91v5.59A19.86,19.86,0,0,0,94,44.48ZM75.69,43.36,64.52,55.69l-2.16-1.95,10.42-11.5V35.55h2.91Z"></path><path fill="#333" d="M74.23,20a22.7,22.7,0,0,0-8.89,1.81V16.59H59.42V9.68H3V83.41H8.92v6.91H65.34V63.75a22.53,22.53,0,0,0,8.89,1.81,22.77,22.77,0,1,0,0-45.53ZM5.91,12.6h50.6v4H8.92V80.5h-3Zm5.92,74.8V19.5H62.42v3.84a22.77,22.77,0,0,0,0,38.92V87.4ZM75.69,62.58V57H72.78v5.59a19.87,19.87,0,0,1-18.32-18.1h5.8V41.56H54.44A19.85,19.85,0,0,1,72.78,23v6h2.91V23A19.85,19.85,0,0,1,94,41.56H88.21v2.92H94A19.86,19.86,0,0,1,75.69,62.58Z"></path><polygon fill="#333" points="72.78 42.23 62.36 53.74 64.52 55.7 75.69 43.36 75.69 35.55 72.78 35.55 72.78 42.23"></polygon></svg>